<svg xmlns="http://www.w3.org/2000/svg" xmlns:xlink="http://www.w3.org/1999/xlink" viewBox="145 75 1210 1350" preserveAspectRatio="xMidYMid meet" version="1.0"><defs><clipPath id="8832cce485"><path d="M 145 75 L 1355 75 L 1355 1425 L 145 1425 Z M 145 75 " clip-rule="nonzero"/></clipPath></defs><g clip-path="url(#8832cce485)"><path fill="#e8960c" d="M 1253.820312 663.828125 C 1209.265625 708.382812 1154.863281 739.253906 1095.15625 754.324219 L 1095.15625 1080.085938 C 1095.15625 1172.246094 1059.222656 1258.882812 994.050781 1324.027344 C 928.875 1389.203125 842.210938 1425.082031 750.054688 1425.082031 C 657.894531 1425.082031 571.261719 1389.203125 506.085938 1324.027344 C 440.910156 1258.855469 405.007812 1172.246094 405.007812 1080.085938 L 405.007812 359.390625 L 1034.199219 359.390625 C 1067.820312 359.390625 1095.074219 386.425781 1095.074219 420.046875 C 1095.074219 453.667969 1067.820312 480.707031 1034.199219 480.707031 L 527.304688 480.707031 L 527.304688 1080.085938 C 527.304688 1203.390625 627.320312 1303.65625 750.707031 1303.328125 C 874.09375 1302.976562 972.859375 1201.324219 972.859375 1077.9375 L 972.859375 765.152344 L 810.742188 765.152344 L 810.742188 1100.378906 C 810.742188 1134 783.703125 1161.257812 750.082031 1161.257812 C 716.460938 1161.257812 689.421875 1134 689.421875 1100.378906 L 689.421875 642.855469 L 1009.855469 642.855469 C 1133.15625 642.855469 1233.421875 542.34375 1233.09375 418.960938 C 1232.742188 295.574219 1131.089844 196.34375 1007.703125 196.34375 L 490.335938 196.34375 C 367.058594 196.34375 267.558594 296.582031 267.558594 419.859375 L 267.558594 682.894531 C 259.96875 676.828125 253.304688 670.492188 246.613281 663.828125 C 181.4375 598.679688 145.316406 512.042969 145.316406 419.886719 C 145.316406 327.726562 181.195312 241.117188 246.367188 175.972656 C 311.515625 110.824219 398.152344 75 490.308594 75 L 1009.828125 75 C 1101.984375 75 1188.621094 110.824219 1253.769531 175.972656 C 1318.941406 241.144531 1354.820312 327.699219 1354.820312 419.859375 C 1354.820312 512.015625 1318.96875 598.652344 1253.820312 663.828125 Z M 1253.820312 663.828125 " fill-opacity="1" fill-rule="nonzero"/></g></svg>
