<svg xmlns="http://www.w3.org/2000/svg" xmlns:xlink="http://www.w3.org/1999/xlink" viewBox="145 44 1213 1412" preserveAspectRatio="xMidYMid meet" version="1.0"><defs><g/><clipPath id="f9fd527677"><path d="M 103 0.886719 L 1107 0.886719 L 1107 1120.898438 L 103 1120.898438 Z M 103 0.886719 " clip-rule="nonzero"/></clipPath><clipPath id="302829a21b"><rect x="0" width="1213" y="0" height="1412"/></clipPath></defs><g transform="matrix(1, 0, 0, 1, 145, 44)"><g clip-path="url(#302829a21b)"><g fill="#1a3a5c" fill-opacity="1"><g transform="translate(0.883707, 1263.864588)"><g><path d="M 29.609375 -73.765625 L 0.515625 -73.765625 L 0.515625 -90.90625 L 79.734375 -90.90625 L 79.734375 -73.765625 L 50.640625 -73.765625 L 50.640625 0 L 29.609375 0 Z M 29.609375 -73.765625 "/></g></g></g><g fill="#1a3a5c" fill-opacity="1"><g transform="translate(79.839136, 1263.864588)"><g><path d="M 54.796875 1.5625 C 45.359375 1.5625 36.851562 -0.472656 29.28125 -4.546875 C 21.707031 -8.617188 15.773438 -14.222656 11.484375 -21.359375 C 7.203125 -28.503906 5.0625 -36.535156 5.0625 -45.453125 C 5.0625 -54.367188 7.203125 -62.394531 11.484375 -69.53125 C 15.773438 -76.675781 21.707031 -82.28125 29.28125 -86.34375 C 36.851562 -90.414062 45.359375 -92.453125 54.796875 -92.453125 C 64.234375 -92.453125 72.71875 -90.414062 80.25 -86.34375 C 87.78125 -82.28125 93.707031 -76.675781 98.03125 -69.53125 C 102.363281 -62.394531 104.53125 -54.367188 104.53125 -45.453125 C 104.53125 -36.535156 102.363281 -28.503906 98.03125 -21.359375 C 93.707031 -14.222656 87.78125 -8.617188 80.25 -4.546875 C 72.71875 -0.472656 64.234375 1.5625 54.796875 1.5625 Z M 54.796875 -16.359375 C 60.171875 -16.359375 65.019531 -17.59375 69.34375 -20.0625 C 73.675781 -22.53125 77.070312 -25.972656 79.53125 -30.390625 C 82 -34.804688 83.234375 -39.828125 83.234375 -45.453125 C 83.234375 -51.078125 82 -56.097656 79.53125 -60.515625 C 77.070312 -64.929688 73.675781 -68.375 69.34375 -70.84375 C 65.019531 -73.3125 60.171875 -74.546875 54.796875 -74.546875 C 49.429688 -74.546875 44.582031 -73.3125 40.25 -70.84375 C 35.925781 -68.375 32.53125 -64.929688 30.0625 -60.515625 C 27.59375 -56.097656 26.359375 -51.078125 26.359375 -45.453125 C 26.359375 -39.828125 27.59375 -34.804688 30.0625 -30.390625 C 32.53125 -25.972656 35.925781 -22.53125 40.25 -20.0625 C 44.582031 -17.59375 49.429688 -16.359375 54.796875 -16.359375 Z M 54.796875 -16.359375 "/></g></g></g><g fill="#1a3a5c" fill-opacity="1"><g transform="translate(189.441728, 1263.864588)"><g><path d="M 54.28125 1.5625 C 45.019531 1.5625 36.644531 -0.445312 29.15625 -4.46875 C 21.664062 -8.5 15.773438 -14.085938 11.484375 -21.234375 C 7.203125 -28.378906 5.0625 -36.453125 5.0625 -45.453125 C 5.0625 -54.453125 7.203125 -62.523438 11.484375 -69.671875 C 15.773438 -76.816406 21.664062 -82.398438 29.15625 -86.421875 C 36.644531 -90.441406 45.0625 -92.453125 54.40625 -92.453125 C 62.289062 -92.453125 69.410156 -91.066406 75.765625 -88.296875 C 82.128906 -85.535156 87.476562 -81.554688 91.8125 -76.359375 L 78.3125 -63.890625 C 72.15625 -70.992188 64.535156 -74.546875 55.453125 -74.546875 C 49.828125 -74.546875 44.804688 -73.3125 40.390625 -70.84375 C 35.972656 -68.375 32.53125 -64.929688 30.0625 -60.515625 C 27.59375 -56.097656 26.359375 -51.078125 26.359375 -45.453125 C 26.359375 -39.828125 27.59375 -34.804688 30.0625 -30.390625 C 32.53125 -25.972656 35.972656 -22.53125 40.390625 -20.0625 C 44.804688 -17.59375 49.828125 -16.359375 55.453125 -16.359375 C 64.535156 -16.359375 72.15625 -19.953125 78.3125 -27.140625 L 91.8125 -14.671875 C 87.476562 -9.390625 82.109375 -5.363281 75.703125 -2.59375 C 69.296875 0.175781 62.15625 1.5625 54.28125 1.5625 Z M 54.28125 1.5625 "/></g></g></g><g fill="#1a3a5c" fill-opacity="1"><g transform="translate(284.629753, 1263.864588)"><g><path d="M 94.140625 -90.90625 L 94.140625 0 L 73.109375 0 L 73.109375 -37.265625 L 31.8125 -37.265625 L 31.8125 0 L 10.78125 0 L 10.78125 -90.90625 L 31.8125 -90.90625 L 31.8125 -55.0625 L 73.109375 -55.0625 L 73.109375 -90.90625 Z M 94.140625 -90.90625 "/></g></g></g><g fill="#1a3a5c" fill-opacity="1"><g transform="translate(389.557342, 1263.864588)"><g><path d="M 10.78125 -90.90625 L 31.8125 -90.90625 L 31.8125 0 L 10.78125 0 Z M 10.78125 -90.90625 "/></g></g></g><g fill="#1a3a5c" fill-opacity="1"><g transform="translate(432.151734, 1263.864588)"><g/></g></g><g fill="#1a3a5c" fill-opacity="1"><g transform="translate(468.902368, 1263.864588)"><g><path d="M 50.125 -90.90625 C 58.175781 -90.90625 65.164062 -89.5625 71.09375 -86.875 C 77.03125 -84.1875 81.597656 -80.375 84.796875 -75.4375 C 88.003906 -70.507812 89.609375 -64.671875 89.609375 -57.921875 C 89.609375 -51.253906 88.003906 -45.429688 84.796875 -40.453125 C 81.597656 -35.472656 77.03125 -31.660156 71.09375 -29.015625 C 65.164062 -26.378906 58.175781 -25.0625 50.125 -25.0625 L 31.8125 -25.0625 L 31.8125 0 L 10.78125 0 L 10.78125 -90.90625 Z M 48.953125 -42.203125 C 55.273438 -42.203125 60.082031 -43.566406 63.375 -46.296875 C 66.664062 -49.023438 68.3125 -52.898438 68.3125 -57.921875 C 68.3125 -63.023438 66.664062 -66.941406 63.375 -69.671875 C 60.082031 -72.398438 55.273438 -73.765625 48.953125 -73.765625 L 31.8125 -73.765625 L 31.8125 -42.203125 Z M 48.953125 -42.203125 "/></g></g></g><g fill="#1a3a5c" fill-opacity="1"><g transform="translate(562.661925, 1263.864588)"><g><path d="M 68.703125 0 L 51.171875 -25.328125 L 31.8125 -25.328125 L 31.8125 0 L 10.78125 0 L 10.78125 -90.90625 L 50.125 -90.90625 C 58.175781 -90.90625 65.164062 -89.5625 71.09375 -86.875 C 77.03125 -84.1875 81.597656 -80.375 84.796875 -75.4375 C 88.003906 -70.507812 89.609375 -64.671875 89.609375 -57.921875 C 89.609375 -51.160156 87.984375 -45.332031 84.734375 -40.4375 C 81.484375 -35.550781 76.875 -31.8125 70.90625 -29.21875 L 91.296875 0 Z M 68.3125 -57.921875 C 68.3125 -63.023438 66.664062 -66.941406 63.375 -69.671875 C 60.082031 -72.398438 55.273438 -73.765625 48.953125 -73.765625 L 31.8125 -73.765625 L 31.8125 -42.078125 L 48.953125 -42.078125 C 55.273438 -42.078125 60.082031 -43.460938 63.375 -46.234375 C 66.664062 -49.003906 68.3125 -52.898438 68.3125 -57.921875 Z M 68.3125 -57.921875 "/></g></g></g><g fill="#1a3a5c" fill-opacity="1"><g transform="translate(658.109644, 1263.864588)"><g><path d="M 54.796875 1.5625 C 45.359375 1.5625 36.851562 -0.472656 29.28125 -4.546875 C 21.707031 -8.617188 15.773438 -14.222656 11.484375 -21.359375 C 7.203125 -28.503906 5.0625 -36.535156 5.0625 -45.453125 C 5.0625 -54.367188 7.203125 -62.394531 11.484375 -69.53125 C 15.773438 -76.675781 21.707031 -82.28125 29.28125 -86.34375 C 36.851562 -90.414062 45.359375 -92.453125 54.796875 -92.453125 C 64.234375 -92.453125 72.71875 -90.414062 80.25 -86.34375 C 87.78125 -82.28125 93.707031 -76.675781 98.03125 -69.53125 C 102.363281 -62.394531 104.53125 -54.367188 104.53125 -45.453125 C 104.53125 -36.535156 102.363281 -28.503906 98.03125 -21.359375 C 93.707031 -14.222656 87.78125 -8.617188 80.25 -4.546875 C 72.71875 -0.472656 64.234375 1.5625 54.796875 1.5625 Z M 54.796875 -16.359375 C 60.171875 -16.359375 65.019531 -17.59375 69.34375 -20.0625 C 73.675781 -22.53125 77.070312 -25.972656 79.53125 -30.390625 C 82 -34.804688 83.234375 -39.828125 83.234375 -45.453125 C 83.234375 -51.078125 82 -56.097656 79.53125 -60.515625 C 77.070312 -64.929688 73.675781 -68.375 69.34375 -70.84375 C 65.019531 -73.3125 60.171875 -74.546875 54.796875 -74.546875 C 49.429688 -74.546875 44.582031 -73.3125 40.25 -70.84375 C 35.925781 -68.375 32.53125 -64.929688 30.0625 -60.515625 C 27.59375 -56.097656 26.359375 -51.078125 26.359375 -45.453125 C 26.359375 -39.828125 27.59375 -34.804688 30.0625 -30.390625 C 32.53125 -25.972656 35.925781 -22.53125 40.25 -20.0625 C 44.582031 -17.59375 49.429688 -16.359375 54.796875 -16.359375 Z M 54.796875 -16.359375 "/></g></g></g><g fill="#1a3a5c" fill-opacity="1"><g transform="translate(767.71231, 1263.864588)"><g><path d="M 50.125 -90.90625 C 58.175781 -90.90625 65.164062 -89.5625 71.09375 -86.875 C 77.03125 -84.1875 81.597656 -80.375 84.796875 -75.4375 C 88.003906 -70.507812 89.609375 -64.671875 89.609375 -57.921875 C 89.609375 -51.253906 88.003906 -45.429688 84.796875 -40.453125 C 81.597656 -35.472656 77.03125 -31.660156 71.09375 -29.015625 C 65.164062 -26.378906 58.175781 -25.0625 50.125 -25.0625 L 31.8125 -25.0625 L 31.8125 0 L 10.78125 0 L 10.78125 -90.90625 Z M 48.953125 -42.203125 C 55.273438 -42.203125 60.082031 -43.566406 63.375 -46.296875 C 66.664062 -49.023438 68.3125 -52.898438 68.3125 -57.921875 C 68.3125 -63.023438 66.664062 -66.941406 63.375 -69.671875 C 60.082031 -72.398438 55.273438 -73.765625 48.953125 -73.765625 L 31.8125 -73.765625 L 31.8125 -42.203125 Z M 48.953125 -42.203125 "/></g></g></g><g fill="#1a3a5c" fill-opacity="1"><g transform="translate(861.471829, 1263.864588)"><g><path d="M 81.15625 -16.875 L 81.15625 0 L 10.78125 0 L 10.78125 -90.90625 L 79.46875 -90.90625 L 79.46875 -74.015625 L 31.6875 -74.015625 L 31.6875 -54.28125 L 73.890625 -54.28125 L 73.890625 -37.921875 L 31.6875 -37.921875 L 31.6875 -16.875 Z M 81.15625 -16.875 "/></g></g></g><g fill="#1a3a5c" fill-opacity="1"><g transform="translate(948.60847, 1263.864588)"><g><path d="M 68.703125 0 L 51.171875 -25.328125 L 31.8125 -25.328125 L 31.8125 0 L 10.78125 0 L 10.78125 -90.90625 L 50.125 -90.90625 C 58.175781 -90.90625 65.164062 -89.5625 71.09375 -86.875 C 77.03125 -84.1875 81.597656 -80.375 84.796875 -75.4375 C 88.003906 -70.507812 89.609375 -64.671875 89.609375 -57.921875 C 89.609375 -51.160156 87.984375 -45.332031 84.734375 -40.4375 C 81.484375 -35.550781 76.875 -31.8125 70.90625 -29.21875 L 91.296875 0 Z M 68.3125 -57.921875 C 68.3125 -63.023438 66.664062 -66.941406 63.375 -69.671875 C 60.082031 -72.398438 55.273438 -73.765625 48.953125 -73.765625 L 31.8125 -73.765625 L 31.8125 -42.078125 L 48.953125 -42.078125 C 55.273438 -42.078125 60.082031 -43.460938 63.375 -46.234375 C 66.664062 -49.003906 68.3125 -52.898438 68.3125 -57.921875 Z M 68.3125 -57.921875 "/></g></g></g><g fill="#1a3a5c" fill-opacity="1"><g transform="translate(1042.75768, 1263.864588)"><g><path d="M 29.609375 -73.765625 L 0.515625 -73.765625 L 0.515625 -90.90625 L 79.734375 -90.90625 L 79.734375 -73.765625 L 50.640625 -73.765625 L 50.640625 0 L 29.609375 0 Z M 29.609375 -73.765625 "/></g></g></g><g fill="#1a3a5c" fill-opacity="1"><g transform="translate(1121.32351, 1263.864588)"><g><path d="M 54.40625 -32.203125 L 54.40625 0 L 33.375 0 L 33.375 -32.46875 L -1.8125 -90.90625 L 20.515625 -90.90625 L 44.796875 -50.515625 L 69.078125 -90.90625 L 89.734375 -90.90625 Z M 54.40625 -32.203125 "/></g></g></g><g fill="#8b5a00" fill-opacity="1"><g transform="translate(104.341671, 1392.142082)"><g><path d="M 31.671875 -18.625 L 27.984375 0 L 15.5625 0 L 19.328125 -19.171875 L 5.515625 -53.671875 L 17.9375 -53.671875 L 27.53125 -29.75 L 46.765625 -53.671875 L 59.578125 -53.671875 Z M 31.671875 -18.625 "/></g></g></g><g fill="#8b5a00" fill-opacity="1"><g transform="translate(151.563915, 1392.142082)"><g><path d="M 23 0.609375 C 18.863281 0.609375 15.222656 -0.15625 12.078125 -1.6875 C 8.929688 -3.21875 6.5 -5.375 4.78125 -8.15625 C 3.070312 -10.945312 2.21875 -14.179688 2.21875 -17.859375 C 2.21875 -22.410156 3.289062 -26.5 5.4375 -30.125 C 7.582031 -33.757812 10.546875 -36.625 14.328125 -38.71875 C 18.117188 -40.8125 22.390625 -41.859375 27.140625 -41.859375 C 31.328125 -41.859375 34.976562 -41.09375 38.09375 -39.5625 C 41.21875 -38.03125 43.632812 -35.867188 45.34375 -33.078125 C 47.0625 -30.296875 47.921875 -27.066406 47.921875 -23.390625 C 47.921875 -18.835938 46.859375 -14.742188 44.734375 -11.109375 C 42.617188 -7.484375 39.65625 -4.625 35.84375 -2.53125 C 32.03125 -0.4375 27.75 0.609375 23 0.609375 Z M 23.765625 -9.28125 C 26.066406 -9.28125 28.132812 -9.851562 29.96875 -11 C 31.8125 -12.15625 33.242188 -13.753906 34.265625 -15.796875 C 35.296875 -17.835938 35.8125 -20.1875 35.8125 -22.84375 C 35.8125 -25.65625 34.992188 -27.878906 33.359375 -29.515625 C 31.722656 -31.148438 29.421875 -31.96875 26.453125 -31.96875 C 24.097656 -31.96875 22 -31.390625 20.15625 -30.234375 C 18.320312 -29.085938 16.894531 -27.492188 15.875 -25.453125 C 14.851562 -23.410156 14.34375 -21.0625 14.34375 -18.40625 C 14.34375 -15.59375 15.171875 -13.367188 16.828125 -11.734375 C 18.492188 -10.097656 20.804688 -9.28125 23.765625 -9.28125 Z M 23.765625 -9.28125 "/></g></g></g><g fill="#8b5a00" fill-opacity="1"><g transform="translate(201.699798, 1392.142082)"><g><path d="M 51.21875 -41.25 L 43.015625 0 L 31.671875 0 L 32.515625 -4.453125 C 30.722656 -2.765625 28.675781 -1.5 26.375 -0.65625 C 24.070312 0.183594 21.644531 0.609375 19.09375 0.609375 C 14.59375 0.609375 11 -0.613281 8.3125 -3.0625 C 5.632812 -5.519531 4.296875 -8.972656 4.296875 -13.421875 C 4.296875 -15.109375 4.472656 -16.769531 4.828125 -18.40625 L 9.359375 -41.25 L 21.3125 -41.25 L 16.9375 -19.171875 C 16.738281 -18.203125 16.640625 -17.203125 16.640625 -16.171875 C 16.640625 -11.878906 18.9375 -9.734375 23.53125 -9.734375 C 26.550781 -9.734375 29.046875 -10.613281 31.015625 -12.375 C 32.984375 -14.144531 34.320312 -16.789062 35.03125 -20.3125 L 39.25 -41.25 Z M 51.21875 -41.25 "/></g></g></g><g fill="#8b5a00" fill-opacity="1"><g transform="translate(254.365467, 1392.142082)"><g><path d="M 20.015625 -36.34375 C 21.796875 -38.28125 23.953125 -39.679688 26.484375 -40.546875 C 29.015625 -41.421875 31.992188 -41.859375 35.421875 -41.859375 L 33.28125 -30.828125 C 31.84375 -30.921875 30.921875 -30.96875 30.515625 -30.96875 C 26.890625 -30.96875 23.988281 -30.070312 21.8125 -28.28125 C 19.632812 -26.5 18.164062 -23.71875 17.40625 -19.9375 L 13.421875 0 L 1.453125 0 L 9.65625 -41.25 L 21.015625 -41.25 Z M 20.015625 -36.34375 "/></g></g></g><g fill="#8b5a00" fill-opacity="1"><g transform="translate(287.406085, 1392.142082)"><g/></g></g><g fill="#8b5a00" fill-opacity="1"><g transform="translate(309.100971, 1392.142082)"><g><path d="M 34.65625 -53.671875 C 41.351562 -53.671875 46.523438 -52.203125 50.171875 -49.265625 C 53.828125 -46.328125 55.65625 -42.222656 55.65625 -36.953125 C 55.65625 -32.453125 54.59375 -28.53125 52.46875 -25.1875 C 50.351562 -21.84375 47.335938 -19.273438 43.421875 -17.484375 C 39.515625 -15.691406 34.90625 -14.796875 29.59375 -14.796875 L 17.640625 -14.796875 L 14.71875 0 L 2.21875 0 L 12.953125 -53.671875 Z M 30.125 -24.921875 C 34.269531 -24.921875 37.46875 -25.863281 39.71875 -27.75 C 41.96875 -29.644531 43.09375 -32.351562 43.09375 -35.875 C 43.09375 -38.4375 42.234375 -40.351562 40.515625 -41.625 C 38.804688 -42.90625 36.34375 -43.546875 33.125 -43.546875 L 23.390625 -43.546875 L 19.625 -24.921875 Z M 30.125 -24.921875 "/></g></g></g><g fill="#8b5a00" fill-opacity="1"><g transform="translate(364.449665, 1392.142082)"><g><path d="M 20.015625 -36.34375 C 21.796875 -38.28125 23.953125 -39.679688 26.484375 -40.546875 C 29.015625 -41.421875 31.992188 -41.859375 35.421875 -41.859375 L 33.28125 -30.828125 C 31.84375 -30.921875 30.921875 -30.96875 30.515625 -30.96875 C 26.890625 -30.96875 23.988281 -30.070312 21.8125 -28.28125 C 19.632812 -26.5 18.164062 -23.71875 17.40625 -19.9375 L 13.421875 0 L 1.453125 0 L 9.65625 -41.25 L 21.015625 -41.25 Z M 20.015625 -36.34375 "/></g></g></g><g fill="#8b5a00" fill-opacity="1"><g transform="translate(396.800252, 1392.142082)"><g><path d="M 23 0.609375 C 18.863281 0.609375 15.222656 -0.15625 12.078125 -1.6875 C 8.929688 -3.21875 6.5 -5.375 4.78125 -8.15625 C 3.070312 -10.945312 2.21875 -14.179688 2.21875 -17.859375 C 2.21875 -22.410156 3.289062 -26.5 5.4375 -30.125 C 7.582031 -33.757812 10.546875 -36.625 14.328125 -38.71875 C 18.117188 -40.8125 22.390625 -41.859375 27.140625 -41.859375 C 31.328125 -41.859375 34.976562 -41.09375 38.09375 -39.5625 C 41.21875 -38.03125 43.632812 -35.867188 45.34375 -33.078125 C 47.0625 -30.296875 47.921875 -27.066406 47.921875 -23.390625 C 47.921875 -18.835938 46.859375 -14.742188 44.734375 -11.109375 C 42.617188 -7.484375 39.65625 -4.625 35.84375 -2.53125 C 32.03125 -0.4375 27.75 0.609375 23 0.609375 Z M 23.765625 -9.28125 C 26.066406 -9.28125 28.132812 -9.851562 29.96875 -11 C 31.8125 -12.15625 33.242188 -13.753906 34.265625 -15.796875 C 35.296875 -17.835938 35.8125 -20.1875 35.8125 -22.84375 C 35.8125 -25.65625 34.992188 -27.878906 33.359375 -29.515625 C 31.722656 -31.148438 29.421875 -31.96875 26.453125 -31.96875 C 24.097656 -31.96875 22 -31.390625 20.15625 -30.234375 C 18.320312 -29.085938 16.894531 -27.492188 15.875 -25.453125 C 14.851562 -23.410156 14.34375 -21.0625 14.34375 -18.40625 C 14.34375 -15.59375 15.171875 -13.367188 16.828125 -11.734375 C 18.492188 -10.097656 20.804688 -9.28125 23.765625 -9.28125 Z M 23.765625 -9.28125 "/></g></g></g><g fill="#8b5a00" fill-opacity="1"><g transform="translate(446.936135, 1392.142082)"><g><path d="M 32.8125 -41.859375 C 36.03125 -41.859375 39.003906 -41.117188 41.734375 -39.640625 C 44.472656 -38.160156 46.648438 -36.023438 48.265625 -33.234375 C 49.878906 -30.453125 50.6875 -27.171875 50.6875 -23.390625 C 50.6875 -18.835938 49.675781 -14.734375 47.65625 -11.078125 C 45.632812 -7.421875 42.882812 -4.554688 39.40625 -2.484375 C 35.9375 -0.421875 32.078125 0.609375 27.828125 0.609375 C 21.546875 0.609375 17.097656 -1.429688 14.484375 -5.515625 L 10.421875 14.875 L -1.53125 14.875 L 9.65625 -41.25 L 21.015625 -41.25 L 20.171875 -37.1875 C 23.585938 -40.300781 27.800781 -41.859375 32.8125 -41.859375 Z M 26.453125 -9.28125 C 28.804688 -9.28125 30.898438 -9.851562 32.734375 -11 C 34.578125 -12.15625 36.007812 -13.753906 37.03125 -15.796875 C 38.050781 -17.835938 38.5625 -20.1875 38.5625 -22.84375 C 38.5625 -25.65625 37.726562 -27.878906 36.0625 -29.515625 C 34.40625 -31.148438 32.097656 -31.96875 29.140625 -31.96875 C 26.835938 -31.96875 24.765625 -31.390625 22.921875 -30.234375 C 21.085938 -29.085938 19.65625 -27.492188 18.625 -25.453125 C 17.601562 -23.410156 17.09375 -21.0625 17.09375 -18.40625 C 17.09375 -15.59375 17.910156 -13.367188 19.546875 -11.734375 C 21.179688 -10.097656 23.484375 -9.28125 26.453125 -9.28125 Z M 26.453125 -9.28125 "/></g></g></g><g fill="#8b5a00" fill-opacity="1"><g transform="translate(499.831771, 1392.142082)"><g><path d="M 46.234375 -23.6875 C 46.234375 -21.800781 46.003906 -19.707031 45.546875 -17.40625 L 13.953125 -17.40625 C 14.359375 -11.78125 17.910156 -8.96875 24.609375 -8.96875 C 26.703125 -8.96875 28.707031 -9.300781 30.625 -9.96875 C 32.539062 -10.632812 34.21875 -11.578125 35.65625 -12.796875 L 40.640625 -4.90625 C 38.335938 -3.0625 35.703125 -1.679688 32.734375 -0.765625 C 29.773438 0.148438 26.660156 0.609375 23.390625 0.609375 C 19.140625 0.609375 15.414062 -0.140625 12.21875 -1.640625 C 9.03125 -3.148438 6.578125 -5.3125 4.859375 -8.125 C 3.148438 -10.9375 2.296875 -14.179688 2.296875 -17.859375 C 2.296875 -22.410156 3.332031 -26.515625 5.40625 -30.171875 C 7.476562 -33.828125 10.351562 -36.6875 14.03125 -38.75 C 17.707031 -40.820312 21.898438 -41.859375 26.609375 -41.859375 C 30.585938 -41.859375 34.046875 -41.117188 36.984375 -39.640625 C 39.929688 -38.160156 42.207031 -36.039062 43.8125 -33.28125 C 45.425781 -30.519531 46.234375 -27.320312 46.234375 -23.6875 Z M 26.0625 -32.890625 C 23.25 -32.890625 20.875 -32.132812 18.9375 -30.625 C 17 -29.125 15.617188 -27.039062 14.796875 -24.375 L 35.265625 -24.375 C 35.265625 -27.039062 34.429688 -29.125 32.765625 -30.625 C 31.109375 -32.132812 28.875 -32.890625 26.0625 -32.890625 Z M 26.0625 -32.890625 "/></g></g></g><g fill="#8b5a00" fill-opacity="1"><g transform="translate(547.974493, 1392.142082)"><g><path d="M 20.015625 -36.34375 C 21.796875 -38.28125 23.953125 -39.679688 26.484375 -40.546875 C 29.015625 -41.421875 31.992188 -41.859375 35.421875 -41.859375 L 33.28125 -30.828125 C 31.84375 -30.921875 30.921875 -30.96875 30.515625 -30.96875 C 26.890625 -30.96875 23.988281 -30.070312 21.8125 -28.28125 C 19.632812 -26.5 18.164062 -23.71875 17.40625 -19.9375 L 13.421875 0 L 1.453125 0 L 9.65625 -41.25 L 21.015625 -41.25 Z M 20.015625 -36.34375 "/></g></g></g><g fill="#8b5a00" fill-opacity="1"><g transform="translate(582.165169, 1392.142082)"><g><path d="M 17.71875 -14.5625 C 17.613281 -14.15625 17.5625 -13.59375 17.5625 -12.875 C 17.5625 -10.21875 19.015625 -8.890625 21.921875 -8.890625 C 23.515625 -8.890625 25.128906 -9.375 26.765625 -10.34375 L 28.515625 -1.84375 C 25.859375 -0.207031 22.4375 0.609375 18.25 0.609375 C 14.363281 0.609375 11.242188 -0.410156 8.890625 -2.453125 C 6.535156 -4.492188 5.359375 -7.304688 5.359375 -10.890625 C 5.359375 -11.910156 5.488281 -13.109375 5.75 -14.484375 L 9.046875 -31.125 L 2.6875 -31.125 L 4.53125 -40.328125 L 10.890625 -40.328125 L 12.875 -50.375 L 24.84375 -50.375 L 22.84375 -40.328125 L 33.125 -40.328125 L 31.28125 -31.125 L 21.015625 -31.125 Z M 17.71875 -14.5625 "/></g></g></g><g fill="#8b5a00" fill-opacity="1"><g transform="translate(614.745723, 1392.142082)"><g><path d="M 50.609375 -41.25 L 23.15625 2.765625 C 20.1875 7.566406 17.304688 10.882812 14.515625 12.71875 C 11.734375 14.5625 8.328125 15.484375 4.296875 15.484375 C 2.148438 15.484375 0.0390625 15.148438 -2.03125 14.484375 C -4.101562 13.828125 -5.726562 12.960938 -6.90625 11.890625 L -1.375 3.296875 C 0.457031 4.984375 2.65625 5.828125 5.21875 5.828125 C 6.75 5.828125 8.078125 5.441406 9.203125 4.671875 C 10.328125 3.910156 11.476562 2.609375 12.65625 0.765625 L 13.03125 0.078125 L 3.53125 -41.25 L 15.484375 -41.25 L 21.625 -13.1875 L 38.796875 -41.25 Z M 50.609375 -41.25 "/></g></g></g><g fill="#8b5a00" fill-opacity="1"><g transform="translate(658.135199, 1392.142082)"><g><path d="M 6.90625 0.609375 C 4.851562 0.609375 3.160156 -0.0390625 1.828125 -1.34375 C 0.503906 -2.644531 -0.15625 -4.289062 -0.15625 -6.28125 C -0.15625 -8.632812 0.609375 -10.550781 2.140625 -12.03125 C 3.679688 -13.519531 5.578125 -14.265625 7.828125 -14.265625 C 9.867188 -14.265625 11.539062 -13.625 12.84375 -12.34375 C 14.144531 -11.0625 14.796875 -9.398438 14.796875 -7.359375 C 14.796875 -5.054688 14.015625 -3.148438 12.453125 -1.640625 C 10.898438 -0.140625 9.050781 0.609375 6.90625 0.609375 Z M 6.90625 0.609375 "/></g></g></g><g fill="#8b5a00" fill-opacity="1"><g transform="translate(678.220222, 1392.142082)"><g/></g></g><g fill="#8b5a00" fill-opacity="1"><g transform="translate(699.915107, 1392.142082)"><g><path d="M 30.0625 0.921875 C 24.6875 0.921875 20.03125 -0.046875 16.09375 -1.984375 C 12.164062 -3.929688 9.148438 -6.664062 7.046875 -10.1875 C 4.953125 -13.71875 3.90625 -17.785156 3.90625 -22.390625 C 3.90625 -28.472656 5.296875 -33.953125 8.078125 -38.828125 C 10.867188 -43.710938 14.78125 -47.5625 19.8125 -50.375 C 24.851562 -53.1875 30.617188 -54.59375 37.109375 -54.59375 C 42.472656 -54.59375 47.125 -53.617188 51.0625 -51.671875 C 55 -49.734375 58.015625 -47 60.109375 -43.46875 C 62.203125 -39.945312 63.25 -35.882812 63.25 -31.28125 C 63.25 -25.195312 61.851562 -19.710938 59.0625 -14.828125 C 56.28125 -9.953125 52.375 -6.109375 47.34375 -3.296875 C 42.3125 -0.484375 36.550781 0.921875 30.0625 0.921875 Z M 31.125 -9.65625 C 35.0625 -9.65625 38.507812 -10.597656 41.46875 -12.484375 C 44.4375 -14.378906 46.710938 -16.910156 48.296875 -20.078125 C 49.890625 -23.253906 50.6875 -26.757812 50.6875 -30.59375 C 50.6875 -34.675781 49.40625 -37.929688 46.84375 -40.359375 C 44.289062 -42.796875 40.6875 -44.015625 36.03125 -44.015625 C 32.09375 -44.015625 28.640625 -43.066406 25.671875 -41.171875 C 22.710938 -39.273438 20.441406 -36.742188 18.859375 -33.578125 C 17.273438 -30.410156 16.484375 -26.910156 16.484375 -23.078125 C 16.484375 -18.984375 17.757812 -15.722656 20.3125 -13.296875 C 22.875 -10.867188 26.476562 -9.65625 31.125 -9.65625 Z M 31.125 -9.65625 "/></g></g></g><g fill="#8b5a00" fill-opacity="1"><g transform="translate(764.616467, 1392.142082)"><g><path d="M 51.21875 -41.25 L 43.015625 0 L 31.671875 0 L 32.515625 -4.453125 C 30.722656 -2.765625 28.675781 -1.5 26.375 -0.65625 C 24.070312 0.183594 21.644531 0.609375 19.09375 0.609375 C 14.59375 0.609375 11 -0.613281 8.3125 -3.0625 C 5.632812 -5.519531 4.296875 -8.972656 4.296875 -13.421875 C 4.296875 -15.109375 4.472656 -16.769531 4.828125 -18.40625 L 9.359375 -41.25 L 21.3125 -41.25 L 16.9375 -19.171875 C 16.738281 -18.203125 16.640625 -17.203125 16.640625 -16.171875 C 16.640625 -11.878906 18.9375 -9.734375 23.53125 -9.734375 C 26.550781 -9.734375 29.046875 -10.613281 31.015625 -12.375 C 32.984375 -14.144531 34.320312 -16.789062 35.03125 -20.3125 L 39.25 -41.25 Z M 51.21875 -41.25 "/></g></g></g><g fill="#8b5a00" fill-opacity="1"><g transform="translate(817.282082, 1392.142082)"><g><path d="M 20.015625 -36.34375 C 21.796875 -38.28125 23.953125 -39.679688 26.484375 -40.546875 C 29.015625 -41.421875 31.992188 -41.859375 35.421875 -41.859375 L 33.28125 -30.828125 C 31.84375 -30.921875 30.921875 -30.96875 30.515625 -30.96875 C 26.890625 -30.96875 23.988281 -30.070312 21.8125 -28.28125 C 19.632812 -26.5 18.164062 -23.71875 17.40625 -19.9375 L 13.421875 0 L 1.453125 0 L 9.65625 -41.25 L 21.015625 -41.25 Z M 20.015625 -36.34375 "/></g></g></g><g fill="#8b5a00" fill-opacity="1"><g transform="translate(850.322719, 1392.142082)"><g/></g></g><g fill="#8b5a00" fill-opacity="1"><g transform="translate(872.017641, 1392.142082)"><g><path d="M 34.65625 -53.671875 C 41.351562 -53.671875 46.523438 -52.203125 50.171875 -49.265625 C 53.828125 -46.328125 55.65625 -42.222656 55.65625 -36.953125 C 55.65625 -32.453125 54.59375 -28.53125 52.46875 -25.1875 C 50.351562 -21.84375 47.335938 -19.273438 43.421875 -17.484375 C 39.515625 -15.691406 34.90625 -14.796875 29.59375 -14.796875 L 17.640625 -14.796875 L 14.71875 0 L 2.21875 0 L 12.953125 -53.671875 Z M 30.125 -24.921875 C 34.269531 -24.921875 37.46875 -25.863281 39.71875 -27.75 C 41.96875 -29.644531 43.09375 -32.351562 43.09375 -35.875 C 43.09375 -38.4375 42.234375 -40.351562 40.515625 -41.625 C 38.804688 -42.90625 36.34375 -43.546875 33.125 -43.546875 L 23.390625 -43.546875 L 19.625 -24.921875 Z M 30.125 -24.921875 "/></g></g></g><g fill="#8b5a00" fill-opacity="1"><g transform="translate(927.366299, 1392.142082)"><g><path d="M 20.015625 -36.34375 C 21.796875 -38.28125 23.953125 -39.679688 26.484375 -40.546875 C 29.015625 -41.421875 31.992188 -41.859375 35.421875 -41.859375 L 33.28125 -30.828125 C 31.84375 -30.921875 30.921875 -30.96875 30.515625 -30.96875 C 26.890625 -30.96875 23.988281 -30.070312 21.8125 -28.28125 C 19.632812 -26.5 18.164062 -23.71875 17.40625 -19.9375 L 13.421875 0 L 1.453125 0 L 9.65625 -41.25 L 21.015625 -41.25 Z M 20.015625 -36.34375 "/></g></g></g><g fill="#8b5a00" fill-opacity="1"><g transform="translate(960.100239, 1392.142082)"><g><path d="M 9.65625 -41.25 L 21.546875 -41.25 L 13.34375 0 L 1.453125 0 Z M 17.625 -47 C 15.582031 -47 13.910156 -47.597656 12.609375 -48.796875 C 11.304688 -50.003906 10.65625 -51.472656 10.65625 -53.203125 C 10.65625 -55.253906 11.382812 -56.957031 12.84375 -58.3125 C 14.300781 -59.664062 16.203125 -60.34375 18.546875 -60.34375 C 20.648438 -60.34375 22.351562 -59.765625 23.65625 -58.609375 C 24.957031 -57.460938 25.609375 -56.046875 25.609375 -54.359375 C 25.609375 -52.160156 24.863281 -50.382812 23.375 -49.03125 C 21.894531 -47.675781 19.976562 -47 17.625 -47 Z M 17.625 -47 "/></g></g></g><g fill="#8b5a00" fill-opacity="1"><g transform="translate(983.098364, 1392.142082)"><g><path d="M 54.75 -56.890625 L 43.390625 0 L 32.046875 0 L 32.890625 -4.140625 C 29.410156 -0.972656 25.191406 0.609375 20.234375 0.609375 C 17.015625 0.609375 14.050781 -0.128906 11.34375 -1.609375 C 8.632812 -3.085938 6.472656 -5.21875 4.859375 -8 C 3.253906 -10.789062 2.453125 -14.078125 2.453125 -17.859375 C 2.453125 -22.410156 3.460938 -26.515625 5.484375 -30.171875 C 7.503906 -33.828125 10.25 -36.6875 13.71875 -38.75 C 17.195312 -40.820312 21.03125 -41.859375 25.21875 -41.859375 C 28.238281 -41.859375 30.882812 -41.347656 33.15625 -40.328125 C 35.4375 -39.304688 37.238281 -37.800781 38.5625 -35.8125 L 42.78125 -56.890625 Z M 23.921875 -9.28125 C 26.273438 -9.28125 28.367188 -9.851562 30.203125 -11 C 32.046875 -12.15625 33.476562 -13.753906 34.5 -15.796875 C 35.519531 -17.835938 36.03125 -20.1875 36.03125 -22.84375 C 36.03125 -25.65625 35.195312 -27.878906 33.53125 -29.515625 C 31.875 -31.148438 29.566406 -31.96875 26.609375 -31.96875 C 24.253906 -31.96875 22.15625 -31.390625 20.3125 -30.234375 C 18.476562 -29.085938 17.046875 -27.492188 16.015625 -25.453125 C 14.992188 -23.410156 14.484375 -21.0625 14.484375 -18.40625 C 14.484375 -15.59375 15.3125 -13.367188 16.96875 -11.734375 C 18.632812 -10.097656 20.953125 -9.28125 23.921875 -9.28125 Z M 23.921875 -9.28125 "/></g></g></g><g fill="#8b5a00" fill-opacity="1"><g transform="translate(1036.147312, 1392.142082)"><g><path d="M 46.234375 -23.6875 C 46.234375 -21.800781 46.003906 -19.707031 45.546875 -17.40625 L 13.953125 -17.40625 C 14.359375 -11.78125 17.910156 -8.96875 24.609375 -8.96875 C 26.703125 -8.96875 28.707031 -9.300781 30.625 -9.96875 C 32.539062 -10.632812 34.21875 -11.578125 35.65625 -12.796875 L 40.640625 -4.90625 C 38.335938 -3.0625 35.703125 -1.679688 32.734375 -0.765625 C 29.773438 0.148438 26.660156 0.609375 23.390625 0.609375 C 19.140625 0.609375 15.414062 -0.140625 12.21875 -1.640625 C 9.03125 -3.148438 6.578125 -5.3125 4.859375 -8.125 C 3.148438 -10.9375 2.296875 -14.179688 2.296875 -17.859375 C 2.296875 -22.410156 3.332031 -26.515625 5.40625 -30.171875 C 7.476562 -33.828125 10.351562 -36.6875 14.03125 -38.75 C 17.707031 -40.820312 21.898438 -41.859375 26.609375 -41.859375 C 30.585938 -41.859375 34.046875 -41.117188 36.984375 -39.640625 C 39.929688 -38.160156 42.207031 -36.039062 43.8125 -33.28125 C 45.425781 -30.519531 46.234375 -27.320312 46.234375 -23.6875 Z M 26.0625 -32.890625 C 23.25 -32.890625 20.875 -32.132812 18.9375 -30.625 C 17 -29.125 15.617188 -27.039062 14.796875 -24.375 L 35.265625 -24.375 C 35.265625 -27.039062 34.429688 -29.125 32.765625 -30.625 C 31.109375 -32.132812 28.875 -32.890625 26.0625 -32.890625 Z M 26.0625 -32.890625 "/></g></g></g><g clip-path="url(#f9fd527677)"><path fill="#e8960c" d="M 1022.765625 489.144531 C 985.820312 526.089844 940.710938 551.691406 891.203125 564.1875 L 891.203125 834.308594 C 891.203125 910.726562 861.40625 982.566406 807.363281 1036.585938 C 753.320312 1090.628906 681.457031 1120.378906 605.039062 1120.378906 C 528.621094 1120.378906 456.785156 1090.628906 402.742188 1036.585938 C 348.699219 982.542969 318.925781 910.726562 318.925781 834.308594 L 318.925781 236.703125 L 840.65625 236.703125 C 868.535156 236.703125 891.132812 259.125 891.132812 287.003906 C 891.132812 314.882812 868.535156 337.300781 840.65625 337.300781 L 420.335938 337.300781 L 420.335938 834.308594 C 420.335938 936.554688 503.269531 1019.691406 605.582031 1019.421875 C 707.894531 1019.128906 789.792969 934.839844 789.792969 832.527344 L 789.792969 573.164062 L 655.363281 573.164062 L 655.363281 851.136719 C 655.363281 879.015625 632.941406 901.617188 605.0625 901.617188 C 577.183594 901.617188 554.765625 879.015625 554.765625 851.136719 L 554.765625 471.753906 L 820.46875 471.753906 C 922.710938 471.753906 1005.851562 388.410156 1005.578125 286.101562 C 1005.285156 183.789062 920.996094 101.507812 818.6875 101.507812 L 389.679688 101.507812 C 287.460938 101.507812 204.953125 184.625 204.953125 286.84375 L 204.953125 504.957031 C 198.660156 499.925781 193.132812 494.671875 187.585938 489.144531 C 133.542969 435.125 103.589844 363.285156 103.589844 286.867188 C 103.589844 210.449219 133.339844 138.632812 187.382812 84.613281 C 241.402344 30.59375 313.242188 0.886719 389.660156 0.886719 L 820.445312 0.886719 C 896.863281 0.886719 968.703125 30.59375 1022.722656 84.613281 C 1076.765625 138.65625 1106.515625 210.425781 1106.515625 286.84375 C 1106.515625 363.261719 1076.789062 435.101562 1022.765625 489.144531 Z M 1022.765625 489.144531 " fill-opacity="1" fill-rule="nonzero"/></g></g></g></svg>
